<svg xmlns="http://www.w3.org/2000/svg" xmlns:xlink="http://www.w3.org/1999/xlink" xmlns:lucid="lucid" width="1760.66" height="873"><g transform="translate(-299.5 20)" lucid:page-tab-id="0_0"><path d="M1160 66a6 6 0 0 1 6-6h588a6 6 0 0 1 6 6v768a6 6 0 0 1-6 6h-588a6 6 0 0 1-6-6z" stroke="#000" stroke-width="2" fill="#f2f2ff"/><path d="M305.6 454.6c1.33-27.12 23-48.6 49.4-48.6 8.9 0 17.7 2.4 25.3 7.2 14.2 8.76 23.2 24.36 24.1 41.4h-98.8zm22.45-82.2c0-14.88 12.1-27 26.95-27s26.95 12.12 26.95 27-12.1 26.88-26.95 26.88-26.95-12-26.95-26.88zm55.22 36.12c-4.84-3-10-5.04-15.4-6.36 11.55-5.04 19.58-16.44 19.58-29.76 0-17.88-14.52-32.4-32.45-32.4-17.93 0-32.45 14.52-32.45 32.4 0 13.32 8.03 24.72 19.58 29.76-24.1 6-42.13 28.44-42.13 55.08 0 1.56 1.2 2.76 2.75 2.76h104.5c1.54 0 2.75-1.2 2.75-2.76 0-19.8-10.23-38.52-26.73-48.72z" stroke="#000" stroke-opacity="0" fill="#232f3e"/><use xlink:href="#a" transform="matrix(1,0,0,1,270,469) translate(60.20616319444444 21.52777777777778)"/><path d="M560 326a6 6 0 0 1 6-6h148a6 6 0 0 1 6 6v148a6 6 0 0 1-6 6H566a6 6 0 0 1-6-6z" stroke="#000" stroke-width="2" fill="#f2f2ff"/><use xlink:href="#b" transform="matrix(1,0,0,1,565,325) translate(45.20399305555556 68.40277777777777)"/><use xlink:href="#c" transform="matrix(1,0,0,1,565,325) translate(28.16840277777778 100.66840277777777)"/><path d="M900 328.85a6 6 0 0 1 6-6h148a6 6 0 0 1 6 6v148a6 6 0 0 1-6 6H906a6 6 0 0 1-6-6z" stroke="#000" stroke-width="2" fill="#f2f2ff"/><use xlink:href="#d" transform="matrix(1,0,0,1,905,327.85) translate(38.064236111111114 68.40277777777777)"/><use xlink:href="#e" transform="matrix(1,0,0,1,905,327.85) translate(16.49848090277778 100.66840277777777)"/><path d="M1540 80h120v154.3h-120z" fill-opacity="0"/><path d="M1613.64 160.02c3.8-1.63 6.52-4.88 7.43-8.77.54.13 1.2.26 1.8.26 3.93 0 7.13-3.24 7.13-7.14 0-3.3-2.17-6.04-5.13-6.88l3.26-8.25c1.27-3.12 1.2-6.7-.12-9.8l-2.65-6.18c-1.14-2.73-3.5-4.8-6.34-5.66-2.1-.66-4.4-.52-6.44.25-.97-4.48-4.95-7.8-9.72-7.8h-11.95c-1.88 0-3.7.72-5.08 2.1l-12.44 12.4c-3.14 3.18-4.4 7.66-3.38 12l2.78 12.1c-1.7 1.3-2.84 3.37-2.84 5.7 0 3.9 3.2 7.16 7.12 7.16.6 0 1.27-.12 1.82-.25.96 3.9 3.68 7.14 7.48 8.77l3.62 1.56 2.84 1.23 3.2 1.38c1.27.58 2.6.84 3.98.84 1.33 0 2.66-.26 3.92-.84l3.2-1.37 2.84-1.22 3.68-1.56zm7.8-19.7c.4-.18.95-.25 1.44-.25 2.35 0 4.28 1.9 4.28 4.3 0 2.33-1.93 4.28-4.28 4.28-.5 0-1.03-.13-1.45-.26v-8.07zm-42.93 8.07c-.4.12-.9.25-1.44.25-2.35 0-4.28-1.95-4.28-4.3 0-2.4 1.93-4.28 4.28-4.28.55 0 1.03.07 1.45.26v8.06zm2.9-21.2c0-7.07 8.34-12.85 18.6-12.85 10.2 0 18.53 5.78 18.53 12.86v8.6c0-2.42-1.87-4.3-4.28-4.3h-8.58c-1.87 0-3.44 1.17-4.04 2.86h-3.32c-.6-1.7-2.16-2.86-4.03-2.86h-8.57c-2.42 0-4.3 1.88-4.3 4.3v-8.6zm34.3 8.6v1.42c0 1.3-2.48 2.85-5.74 2.85-3.26 0-5.67-1.56-5.67-2.85v-1.43c0-.86.6-1.44 1.38-1.44h8.57c.84 0 1.44.58 1.44 1.43zm-20.05 0v1.42c0 1.3-2.4 2.85-5.67 2.85-3.26 0-5.73-1.56-5.73-2.85v-1.43c0-.86.6-1.44 1.45-1.44h8.57c.78 0 1.38.58 1.38 1.43zm7.13 25.78c-1.75.78-3.87.78-5.62 0l-9.7-4.16c-3.7-1.56-6.05-5.2-6.05-9.22v-10.98c0 3.18 3.75 5.7 8.58 5.7 4.77 0 8.57-2.52 8.57-5.7h2.84c0 3.18 3.8 5.7 8.56 5.7 4.83 0 8.57-2.52 8.57-5.7v10.97c0 4.02-2.35 7.66-6.03 9.22l-9.72 4.16zM1584.88 170.73h5.17v-5.7h-3.26l-1.92 5.7zM1609.96 165.02v5.7h5.17l-1.9-5.7h-3.27zM1581.2 173.26l-10.5 3.95c-3.87 1.46-6.46 5.22-6.46 9.3v2.13h25.68V173.2l-8.73.06zM1629.22 177.2l-10.55-4h-8.7v15.43h25.67v-2.12c0-4.1-2.6-7.84-6.42-9.3zM1595.97 170.22l-3.17-2.12v20.53h14.28V168.1l-3.17 2.12c-2.42 1.62-5.5 1.62-7.93 0z" fill="#76b900"/><path d="M1600 80l-60 34.3v68.58l60 34.3 60-34.3v-68.6L1600 80zm57.12 101.23l-55.68 31.83V195.5h-2.88v17.56l-55.68-31.83v-63.37l14.64 9.88 1.56-2.47-15-10.02L1600 83.3l56.16 31.95-15.24 10.15 1.56 2.47 14.64-9.74v63.1z" fill="#76b900"/><path d="M1600 234.3l60-34.26v-11.4l-60 34.24-60-34.25v11.4l60 34.27z" fill="#76b900"/><use xlink:href="#f" transform="matrix(1,0,0,1,1510,243.3) translate(34.14605034722222 21.52777777777778)"/><use xlink:href="#g" transform="matrix(1,0,0,1,1510,243.3) translate(83.53841145833334 21.52777777777778)"/><path d="M1540 325.7h120V480h-120z" fill-opacity="0"/><path d="M1613.64 405.72c3.8-1.63 6.52-4.88 7.43-8.77.54.13 1.2.26 1.8.26 3.93 0 7.13-3.24 7.13-7.14 0-3.3-2.17-6.04-5.13-6.88l3.26-8.25c1.27-3.12 1.2-6.7-.12-9.8l-2.65-6.18c-1.14-2.73-3.5-4.8-6.34-5.66-2.1-.66-4.4-.53-6.44.25-.97-4.48-4.95-7.8-9.72-7.8h-11.95c-1.88 0-3.7.72-5.08 2.1l-12.44 12.4c-3.14 3.18-4.4 7.66-3.38 12l2.78 12.1c-1.7 1.3-2.84 3.37-2.84 5.7 0 3.9 3.2 7.16 7.12 7.16.6 0 1.27-.12 1.82-.25.96 3.9 3.68 7.14 7.48 8.77l3.62 1.56 2.84 1.23 3.2 1.38c1.27.58 2.6.84 3.98.84 1.33 0 2.66-.26 3.92-.85l3.2-1.36 2.84-1.22 3.68-1.56zm7.8-19.7c.4-.18.95-.25 1.44-.25 2.35 0 4.28 1.9 4.28 4.3 0 2.33-1.93 4.28-4.28 4.28-.5 0-1.03-.13-1.45-.26v-8.07zm-42.93 8.07c-.4.12-.9.25-1.44.25-2.35 0-4.28-1.95-4.28-4.3 0-2.4 1.93-4.28 4.28-4.28.55 0 1.03.07 1.45.26v8.06zm2.9-21.2c0-7.07 8.34-12.85 18.6-12.85 10.2 0 18.53 5.78 18.53 12.86v8.6c0-2.42-1.87-4.3-4.28-4.3h-8.58c-1.87 0-3.44 1.17-4.04 2.86h-3.32c-.6-1.7-2.16-2.86-4.03-2.86h-8.57c-2.42 0-4.3 1.88-4.3 4.3v-8.6zm34.3 8.6v1.42c0 1.3-2.48 2.85-5.74 2.85-3.26 0-5.67-1.56-5.67-2.85v-1.43c0-.86.6-1.44 1.38-1.44h8.57c.84 0 1.44.58 1.44 1.43zm-20.05 0v1.42c0 1.3-2.4 2.85-5.67 2.85-3.26 0-5.73-1.56-5.73-2.85v-1.43c0-.86.6-1.44 1.45-1.44h8.57c.78 0 1.38.58 1.38 1.43zm7.13 25.78c-1.75.78-3.87.78-5.62 0l-9.7-4.16c-3.7-1.56-6.05-5.2-6.05-9.23V382.9c0 3.18 3.75 5.7 8.58 5.7 4.77 0 8.57-2.52 8.57-5.7h2.84c0 3.18 3.8 5.7 8.56 5.7 4.83 0 8.57-2.52 8.57-5.7v10.97c0 4.02-2.35 7.66-6.03 9.22l-9.72 4.16zM1584.88 416.43h5.17v-5.7h-3.26l-1.92 5.7zM1609.96 410.72v5.7h5.17l-1.9-5.7h-3.27zM1581.2 418.96l-10.5 3.95c-3.87 1.46-6.46 5.22-6.46 9.3v2.13h25.68V418.9l-8.73.06zM1629.22 422.9l-10.55-4h-8.7v15.43h25.67v-2.12c0-4.1-2.6-7.84-6.42-9.3zM1595.97 415.92l-3.17-2.12v20.53h14.28V413.8l-3.17 2.12c-2.42 1.62-5.5 1.62-7.93 0z" fill="#76b900"/><path d="M1600 325.7l-60 34.3v68.58l60 34.3 60-34.3v-68.6l-60-34.28zm57.12 101.23l-55.68 31.83V441.2h-2.88v17.56l-55.68-31.83v-63.37l14.64 9.88 1.56-2.47-15-10.02L1600 329l56.16 31.95-15.24 10.15 1.56 2.47 14.64-9.74v63.1z" fill="#76b900"/><path d="M1600 480l60-34.25v-11.42l-60 34.25-60-34.25v11.42l60 34.25z" fill="#76b900"/><use xlink:href="#h" transform="matrix(1,0,0,1,1510,489.00000000000006) translate(31.42252604166667 21.52777777777778)"/><use xlink:href="#g" transform="matrix(1,0,0,1,1510,489.00000000000006) translate(86.26193576388889 21.52777777777778)"/><path d="M1540 620h120v154.3h-120z" fill-opacity="0"/><path d="M1613.64 700.02c3.8-1.63 6.52-4.88 7.43-8.77.54.13 1.2.26 1.8.26 3.93 0 7.13-3.24 7.13-7.14 0-3.3-2.17-6.04-5.13-6.88l3.26-8.25c1.27-3.12 1.2-6.7-.12-9.8l-2.65-6.18c-1.14-2.73-3.5-4.8-6.34-5.66-2.1-.65-4.4-.52-6.44.25-.97-4.48-4.95-7.8-9.72-7.8h-11.95c-1.88 0-3.7.72-5.08 2.1l-12.44 12.4c-3.14 3.18-4.4 7.66-3.38 12l2.78 12.1c-1.7 1.3-2.84 3.37-2.84 5.7 0 3.9 3.2 7.16 7.12 7.16.6 0 1.27-.12 1.82-.25.96 3.9 3.68 7.14 7.48 8.77l3.62 1.56 2.84 1.23 3.2 1.38c1.27.58 2.6.84 3.98.84 1.33 0 2.66-.26 3.92-.85l3.2-1.36 2.84-1.22 3.68-1.56zm7.8-19.7c.4-.18.95-.25 1.44-.25 2.35 0 4.28 1.9 4.28 4.3 0 2.33-1.93 4.28-4.28 4.28-.5 0-1.03-.13-1.45-.26v-8.07zm-42.93 8.07c-.4.12-.9.25-1.44.25-2.35 0-4.28-1.95-4.28-4.3 0-2.4 1.93-4.27 4.28-4.27.55 0 1.03.06 1.45.25v8.06zm2.9-21.2c0-7.07 8.34-12.85 18.6-12.85 10.2 0 18.53 5.78 18.53 12.86v8.6c0-2.42-1.87-4.3-4.28-4.3h-8.58c-1.87 0-3.44 1.17-4.04 2.86h-3.32c-.6-1.7-2.16-2.86-4.03-2.86h-8.57c-2.42 0-4.3 1.88-4.3 4.3v-8.6zm34.3 8.6v1.42c0 1.3-2.48 2.86-5.74 2.86-3.26 0-5.67-1.57-5.67-2.86v-1.43c0-.86.6-1.44 1.38-1.44h8.57c.84 0 1.44.58 1.44 1.43zm-20.05 0v1.42c0 1.3-2.4 2.86-5.67 2.86-3.26 0-5.73-1.57-5.73-2.86v-1.43c0-.86.6-1.44 1.45-1.44h8.57c.78 0 1.38.58 1.38 1.43zm7.13 25.78c-1.75.78-3.87.78-5.62 0l-9.7-4.16c-3.7-1.56-6.05-5.2-6.05-9.22V677.2c0 3.18 3.75 5.7 8.58 5.7 4.77 0 8.57-2.52 8.57-5.7h2.84c0 3.18 3.8 5.7 8.56 5.7 4.83 0 8.57-2.52 8.57-5.7v10.98c0 4.02-2.35 7.66-6.03 9.22l-9.72 4.16zM1584.88 710.73h5.17v-5.7h-3.26l-1.92 5.7zM1609.96 705.02v5.7h5.17l-1.9-5.7h-3.27zM1581.2 713.26l-10.5 3.95c-3.87 1.46-6.46 5.22-6.46 9.3v2.13h25.68V713.2l-8.73.06zM1629.22 717.2l-10.55-4h-8.7v15.43h25.67v-2.12c0-4.1-2.6-7.84-6.42-9.3zM1595.97 710.22l-3.17-2.12v20.53h14.28V708.1l-3.17 2.12c-2.42 1.62-5.5 1.62-7.93 0z" fill="#76b900"/><path d="M1600 620l-60 34.3v68.58l60 34.3 60-34.3v-68.6L1600 620zm57.12 101.23l-55.68 31.83V735.5h-2.88v17.56l-55.68-31.83v-63.37l14.64 9.88 1.56-2.47-15-10.02L1600 623.3l56.16 31.95-15.24 10.15 1.56 2.47 14.64-9.74v63.1z" fill="#76b900"/><path d="M1600 774.3l60-34.25v-11.42l-60 34.25-60-34.25v11.4l60 34.27z" fill="#76b900"/><use xlink:href="#i" transform="matrix(1,0,0,1,1510,783.3) translate(16.388888888888886 21.52777777777778)"/><use xlink:href="#g" transform="matrix(1,0,0,1,1510,783.3) translate(101.29557291666666 21.52777777777778)"/><path d="M1260 320h120v154.3h-120z" fill-opacity="0"/><path d="M1333.64 400.02c3.8-1.63 6.52-4.88 7.43-8.77.54.13 1.2.26 1.8.26 3.93 0 7.13-3.24 7.13-7.14 0-3.3-2.17-6.04-5.13-6.88l3.26-8.25c1.27-3.12 1.2-6.7-.12-9.8l-2.65-6.18c-1.14-2.73-3.5-4.8-6.34-5.66-2.1-.66-4.4-.53-6.44.25-.97-4.48-4.95-7.8-9.72-7.8h-11.95c-1.88 0-3.7.72-5.08 2.1l-12.44 12.4c-3.14 3.18-4.4 7.66-3.38 12l2.78 12.1c-1.7 1.3-2.84 3.37-2.84 5.7 0 3.9 3.2 7.16 7.12 7.16.6 0 1.27-.12 1.82-.25.96 3.9 3.68 7.14 7.48 8.77l3.62 1.56 2.84 1.23 3.2 1.38c1.27.58 2.6.84 3.98.84 1.33 0 2.66-.26 3.92-.84l3.2-1.37 2.84-1.22 3.68-1.56zm7.8-19.7c.4-.18.95-.25 1.44-.25 2.35 0 4.28 1.9 4.28 4.3 0 2.33-1.93 4.28-4.28 4.28-.5 0-1.03-.13-1.45-.26v-8.07zm-42.93 8.07c-.4.12-.9.25-1.44.25-2.35 0-4.28-1.95-4.28-4.3 0-2.4 1.93-4.28 4.28-4.28.55 0 1.03.07 1.45.26v8.06zm2.9-21.2c0-7.07 8.34-12.85 18.6-12.85 10.2 0 18.53 5.78 18.53 12.86v8.6c0-2.42-1.87-4.3-4.28-4.3h-8.58c-1.87 0-3.44 1.17-4.04 2.86h-3.32c-.6-1.7-2.16-2.86-4.03-2.86h-8.57c-2.42 0-4.3 1.88-4.3 4.3v-8.6zm34.3 8.6v1.42c0 1.3-2.48 2.85-5.74 2.85-3.26 0-5.67-1.56-5.67-2.85v-1.43c0-.86.6-1.44 1.38-1.44h8.57c.84 0 1.44.58 1.44 1.43zm-20.05 0v1.42c0 1.3-2.4 2.85-5.67 2.85-3.26 0-5.73-1.56-5.73-2.85v-1.43c0-.86.6-1.44 1.45-1.44h8.57c.78 0 1.38.58 1.38 1.43zm7.13 25.78c-1.75.78-3.87.78-5.62 0l-9.7-4.16c-3.7-1.56-6.05-5.2-6.05-9.23V377.2c0 3.18 3.75 5.7 8.58 5.7 4.77 0 8.57-2.52 8.57-5.7h2.84c0 3.18 3.8 5.7 8.56 5.7 4.83 0 8.57-2.52 8.57-5.7v10.97c0 4.02-2.35 7.66-6.03 9.22l-9.72 4.16zM1304.88 410.73h5.17v-5.7h-3.26l-1.92 5.7zM1329.96 405.02v5.7h5.17l-1.9-5.7h-3.27zM1301.2 413.26l-10.5 3.95c-3.87 1.46-6.46 5.22-6.46 9.3v2.13h25.68V413.2l-8.73.06zM1349.22 417.2l-10.55-4h-8.7v15.43h25.67v-2.12c0-4.1-2.6-7.84-6.42-9.3zM1315.97 410.22l-3.17-2.12v20.53h14.28V408.1l-3.17 2.12c-2.42 1.62-5.5 1.62-7.93 0z" fill="#76b900"/><path d="M1320 320l-60 34.3v68.58l60 34.3 60-34.3v-68.6L1320 320zm57.12 101.23l-55.68 31.83V435.5h-2.88v17.56l-55.68-31.83v-63.37l14.64 9.88 1.56-2.47-15-10.02L1320 323.3l56.16 31.95-15.24 10.15 1.56 2.47 14.64-9.74v63.1z" fill="#76b900"/><path d="M1320 474.3l60-34.25v-11.42l-60 34.25-60-34.25v11.42l60 34.25z" fill="#76b900"/><path d="M1320 305.5V163.16a6 6 0 0 1 6-6h197.62" stroke="#3a414a" fill="none"/><path d="M1320 319l-7.5-13h15zM1538.38 157.15l-14.26 4.63v-9.27z" stroke="#3a414a" fill="#3a414a"/><path d="M1394.5 397.15h129.12" stroke="#3a414a" fill="none"/><path d="M1381 397.15l13-7.5v15zM1538.38 397.15l-14.27 4.64.02-9.3z" stroke="#3a414a" fill="#3a414a"/><path d="M1240 466a6 6 0 0 1 6-6h148a6 6 0 0 1 6 6v57.16a6 6 0 0 1-6 6h-148a6 6 0 0 1-6-6z" fill="none"/><use xlink:href="#j" transform="matrix(1,0,0,1,1245,465) translate(18.017578125000007 21.95095486111111)"/><use xlink:href="#g" transform="matrix(1,0,0,1,1245,465) translate(43.84223090277778 54.21657986111111)"/><path d="M1320 543.65v147.5a6 6 0 0 0 6 6h197.62" stroke="#3a414a" fill="none"/><path d="M1320 530.16l7.5 13h-15zM1538.38 697.15l-14.26 4.63v-9.26z" stroke="#3a414a" fill="#3a414a"/><path d="M1920 354.3h120v120h-120v-120z" stroke="#000" stroke-opacity="0" fill="#01a88d"/><path d="M2016.04 412.8c-1.68 0-3.03-1.36-3.03-3.04 0-1.6 1.36-2.94 3.04-2.94 1.6 0 2.94 1.35 2.94 2.94 0 1.68-1.35 3.03-2.94 3.03zm-47.88 40.4l-4.88-2.86 10-6.3-1.6-2.52-11.34 7.05-8.82-5.12V430.1l8.32-5.55-1.68-2.52-8.23 5.54-8.9-5.12v-7.3l9.74-5.55-1.5-2.6-8.25 4.7v-5.55l9-5.12 8.98 5.12v5.8l-6.8 4.03 1.6 2.6 6.7-4.03 6.73 4.03 1.5-2.6-6.7-4.03v-5.88l8.3-5.55c.43-.25.68-.75.68-1.26v-10.5h-3v9.75l-7.57 5.05-8.9-5.13v-13.27l7.47-4.37v12.52h3.02v-14.28l6.14-3.6 11.84 3.94v43.1l-21.76 13.1 1.52 2.5L1980 426v23.26l-11.84 3.95zm44.85-23.86c0 1.6-1.33 2.94-3 2.94-1.7 0-3.04-1.35-3.04-2.94 0-1.68 1.35-3.03 3.03-3.03 1.67 0 3 1.36 3 3.04zM1998 444.3c0 1.67-1.35 3-2.94 3-1.68 0-3.03-1.33-3.03-3 0-1.7 1.36-3.04 3.04-3.04 1.6 0 2.94 1.35 2.94 3.03zm-1.52-60c0-1.67 1.35-3 3.03-3 1.67 0 3 1.33 3 3 0 1.7-1.33 3.04-3 3.04-1.7 0-3.04-1.35-3.04-3.03zm19.58 19.5c-2.86 0-5.13 1.93-5.8 4.54h-27.22v-7.56h16.47c.83 0 1.5-.68 1.5-1.52v-9.15c2.6-.66 4.54-3.02 4.54-5.8 0-3.35-2.7-6.04-6.05-6.04-3.3 0-5.98 2.7-5.98 6.05 0 2.78 1.94 5.14 4.46 5.8v7.74h-14.96v-19.58c0-.58-.42-1.17-1-1.42l-13.53-4.46c-.43-.16-.85-.08-1.27.1l-17.97 10.5c-.5.32-.76.83-.76 1.33v14.12l-9.74 5.55c-.5.33-.76.75-.76 1.34v18c0 .58.25 1 .76 1.33l9.74 5.55v14.1c0 .5.25 1.02.76 1.35l17.97 10.5c.25.1.5.17.76.17.16 0 .32 0 .5-.08l13.52-4.46c.58-.25 1-.84 1-1.42v-18.06h10.5v6.2c-2.6.68-4.53 3.04-4.53 5.8 0 3.37 2.68 6.06 6.04 6.06 3.27 0 5.96-2.7 5.96-6.05 0-2.78-1.93-5.14-4.54-5.8v-7.74c0-.75-.67-1.42-1.42-1.42h-12.02v-7.56h18.74l3.2 4.28c-.6.92-.94 2.02-.94 3.28 0 3.27 2.7 5.96 5.97 5.96 3.35 0 6.04-2.7 6.04-5.96 0-3.36-2.7-6.05-6.05-6.05-1.02 0-1.94.24-2.78.74l-3.53-4.62c-.26-.42-.77-.58-1.2-.58h-19.48v-7.56h27.22c.67 2.6 2.94 4.53 5.8 4.53 3.27 0 5.96-2.68 5.96-6.04 0-3.27-2.7-5.96-5.96-5.96z" stroke="#000" stroke-opacity="0" fill="#fff"/><use xlink:href="#k" transform="matrix(1,0,0,1,1890,483.3) translate(10.133463541666671 21.52777777777778)"/><use xlink:href="#l" transform="matrix(1,0,0,1,1890,483.3) translate(90.17903645833334 21.52777777777778)"/><use xlink:href="#m" transform="matrix(1,0,0,1,1890,483.3) translate(110.15516493055556 21.52777777777778)"/><path d="M920 700h120v120H920V700z" stroke="#000" stroke-opacity="0" fill="#01a88d"/><path d="M1016.04 758.5c-1.68 0-3.03-1.36-3.03-3.04 0-1.6 1.36-2.94 3.04-2.94 1.6 0 2.94 1.35 2.94 2.94 0 1.68-1.35 3.03-2.94 3.03zm-47.88 40.4l-4.88-2.86 10-6.3-1.6-2.52-11.34 7.05-8.82-5.12V775.8l8.32-5.55-1.68-2.52-8.23 5.54-8.9-5.12v-7.3l9.74-5.55-1.5-2.6-8.25 4.7v-5.55l9-5.12 8.98 5.12v5.8l-6.8 4.03 1.6 2.6 6.7-4.03 6.73 4.03 1.5-2.6-6.7-4.03v-5.88l8.3-5.55c.43-.25.68-.75.68-1.26v-10.5h-3v9.75l-7.57 5.05-8.9-5.13v-13.27l7.47-4.37V739h3.02v-14.28l6.14-3.6 11.84 3.94v43.1l-21.76 13.1 1.52 2.5L980 771.7v23.26l-11.84 3.95zm44.85-23.86c0 1.6-1.33 2.94-3 2.94-1.7 0-3.04-1.35-3.04-2.94 0-1.68 1.35-3.03 3.03-3.03 1.67 0 3 1.36 3 3.04zM998 790c0 1.67-1.35 3-2.94 3-1.68 0-3.03-1.33-3.03-3 0-1.7 1.36-3.04 3.04-3.04 1.6 0 2.94 1.35 2.94 3.03zm-1.52-60c0-1.67 1.35-3 3.03-3 1.67 0 3 1.33 3 3 0 1.7-1.33 3.04-3 3.04-1.7 0-3.04-1.35-3.04-3.03zm19.58 19.5c-2.86 0-5.13 1.93-5.8 4.54h-27.22v-7.56h16.47c.83 0 1.5-.68 1.5-1.52v-9.15c2.6-.66 4.54-3.02 4.54-5.8 0-3.35-2.7-6.04-6.05-6.04-3.3 0-5.98 2.7-5.98 6.05 0 2.78 1.94 5.14 4.46 5.8v7.74h-14.96v-19.58c0-.58-.42-1.17-1-1.42l-13.53-4.46c-.43-.16-.85-.08-1.27.1l-17.97 10.5c-.5.32-.76.83-.76 1.33v14.12l-9.74 5.55c-.5.33-.76.75-.76 1.34v18c0 .58.25 1 .76 1.33l9.74 5.55v14.1c0 .5.25 1.02.76 1.35l17.97 10.5c.25.1.5.17.76.17.16 0 .32 0 .5-.08l13.52-4.46c.58-.25 1-.84 1-1.42v-18.06h10.5v6.2c-2.6.68-4.53 3.04-4.53 5.8 0 3.37 2.68 6.06 6.04 6.06 3.27 0 5.96-2.7 5.96-6.05 0-2.78-1.93-5.14-4.54-5.8v-7.74c0-.75-.67-1.42-1.42-1.42h-12.02v-7.56h18.74l3.2 4.28c-.6.92-.94 2.02-.94 3.28 0 3.27 2.7 5.96 5.97 5.96 3.35 0 6.04-2.7 6.04-5.96 0-3.36-2.7-6.05-6.05-6.05-1.02 0-1.94.24-2.78.74l-3.53-4.62c-.26-.42-.77-.58-1.2-.58h-19.48v-7.56h27.22c.67 2.6 2.94 4.53 5.8 4.53 3.27 0 5.96-2.68 5.96-6.04 0-3.27-2.7-5.96-5.96-5.96z" stroke="#000" stroke-opacity="0" fill="#fff"/><use xlink:href="#n" transform="matrix(1,0,0,1,890,829) translate(6.075303819444443 21.52777777777778)"/><use xlink:href="#o" transform="matrix(1,0,0,1,890,829) translate(66.81749131944444 21.52777777777778)"/><use xlink:href="#p" transform="matrix(1,0,0,1,890,829) translate(131.85655381944446 21.52777777777778)"/><path d="M980 498.34v185.28" stroke="#3a414a" fill="none"/><path d="M980 484.85l7.5 13h-15zM980 698.38l-4.63-14.26h9.26z" stroke="#3a414a" fill="#3a414a"/><path d="M424.5 400H542.6" stroke="#3a414a" fill="none"/><path d="M411 400l13-7.5v15zM557.38 400l-14.26 4.63v-9.26z" stroke="#3a414a" fill="#3a414a"/><path d="M1340-14a6 6 0 0 1 6-6h268a6 6 0 0 1 6 6v48a6 6 0 0 1-6 6h-268a6 6 0 0 1-6-6z" fill="none"/><use xlink:href="#q" transform="matrix(1,0,0,1,1340,-20) translate(5.353732638888914 38.083767361111114)"/><use xlink:href="#r" transform="matrix(1,0,0,1,1340,-20) translate(134.96527777777777 38.083767361111114)"/><path d="M690 346a6 6 0 0 1 6-6h228a6 6 0 0 1 6 6v48a6 6 0 0 1-6 6H696a6 6 0 0 1-6-6z" fill="none"/><use xlink:href="#s" transform="matrix(1,0,0,1,690,340) translate(61.68836805555556 38.083767361111114)"/><use xlink:href="#t" transform="matrix(1,0,0,1,690,340) translate(117.52604166666666 38.083767361111114)"/><path d="M730 426a6 6 0 0 1 6-6h148a6 6 0 0 1 6 6v28a6 6 0 0 1-6 6H736a6 6 0 0 1-6-6z" fill="none"/><g><use xlink:href="#u" transform="matrix(1,0,0,1,730,420) translate(31.92057291666668 21.52777777777778)"/><use xlink:href="#v" transform="matrix(1,0,0,1,730,420) translate(13.751085069444443 53.79340277777778)"/><use xlink:href="#w" transform="matrix(1,0,0,1,730,420) translate(80.78667534722221 53.79340277777778)"/><use xlink:href="#x" transform="matrix(1,0,0,1,730,420) translate(101.34874131944444 53.79340277777778)"/></g><path d="M735.5 400H882.6" stroke="#3a414a" fill="none"/><path d="M722 400l13-7.5v15zM897.38 400l-14.26 4.63v-9.26z" stroke="#3a414a" fill="#3a414a"/><path d="M1061.5 402.85h182.12" stroke="#3a414a" fill="none"/><path d="M1061.5 403.32h-.5v-.94h.5z" stroke="#3a414a" stroke-width=".05" fill="#3a414a"/><path d="M1258.38 402.85l-14.26 4.63v-9.27z" stroke="#3a414a" fill="#3a414a"/><path d="M1761.5 450h142.12" stroke="#3a414a" fill="none"/><path d="M1761.5 450.48h-.5v-.96h.5z" stroke="#3a414a" stroke-width=".05" fill="#3a414a"/><path d="M1918.38 450l-14.26 4.63v-9.26z" stroke="#3a414a" fill="#3a414a"/><defs><path d="M763 24c-353 0-583-224-583-531v-983h190v968c0 214 149 370 393 370 243 0 391-156 391-370v-968h190v983c0 307-230 531-581 531" id="y"/><path d="M538 24C308 24 148-78 108-271l171-41c32 123 123 178 257 178 156 0 256-77 256-169 0-77-54-128-164-154l-186-44c-203-48-300-148-300-305 0-192 176-326 414-326 230 0 351 112 402 269l-163 42c-31-80-94-158-238-158-133 0-233 69-233 162 0 83 57 129 188 160l169 40c203 48 298 149 298 302 0 196-179 339-441 339" id="z"/><path d="M628 24c-324 0-524-230-524-574 0-343 198-582 503-582 237 0 487 146 487 559v75H286c9 234 145 362 343 362 132 0 231-58 273-172l174 48C1024-91 857 24 628 24zM287-650h624c-17-190-120-322-304-322-192 0-309 151-320 322" id="A"/><path d="M158 0v-1118h174v172h12c41-113 157-188 290-188 26 0 70 2 91 3v181c-11-2-60-10-108-10-161 0-279 109-279 260V0H158" id="B"/><g id="a"><use transform="matrix(0.010850694444444444,0,0,0.010850694444444444,0,0)" xlink:href="#y"/><use transform="matrix(0.010850694444444444,0,0,0.010850694444444444,16.536458333333332,0)" xlink:href="#z"/><use transform="matrix(0.010850694444444444,0,0,0.010850694444444444,28.266059027777775,0)" xlink:href="#A"/><use transform="matrix(0.010850694444444444,0,0,0.010850694444444444,41.22178819444444,0)" xlink:href="#B"/></g><path d="M180 0v-1490h510c348 0 508 194 508 460 0 198-88 351-276 417L1256 0h-220L726-579c-117 2-238 0-356 1V0H180zm190-747h312c235 0 327-108 327-283 0-177-92-293-329-293H370v576" id="C"/><path d="M471 26C259 26 90-98 90-318c0-256 228-303 435-329 202-27 287-16 287-108 0-139-79-219-234-219-161 0-248 86-283 164l-173-57c86-203 278-265 451-265 150 0 419 46 419 395V0H815v-152h-12C765-73 660 26 471 26zm31-159c199 0 310-134 310-271v-155c-30 35-226 55-295 64-131 17-246 59-246 186 0 116 97 176 231 176" id="D"/><path d="M613 24c-304 0-509-231-509-576 0-350 205-580 509-580 216 0 392 114 453 309l-173 49c-33-115-133-197-280-197-223 0-326 196-326 419 0 220 103 415 326 415 150 0 252-85 285-206l172 49C1010-95 832 24 613 24" id="E"/><path d="M598-1118v154H368v674c0 100 37 144 132 144 23 0 62-6 92-12L629-6c-37 13-88 20-134 20-193 0-307-107-307-290v-688H20v-154h168v-266h180v266h230" id="F"/><g id="b"><use transform="matrix(0.010850694444444444,0,0,0.010850694444444444,0,0)" xlink:href="#C"/><use transform="matrix(0.010850694444444444,0,0,0.010850694444444444,13.975694444444445,0)" xlink:href="#A"/><use transform="matrix(0.010850694444444444,0,0,0.010850694444444444,27.1484375,0)" xlink:href="#D"/><use transform="matrix(0.010850694444444444,0,0,0.010850694444444444,39.626736111111114,0)" xlink:href="#E"/><use transform="matrix(0.010850694444444444,0,0,0.010850694444444444,52.32204861111112,0)" xlink:href="#F"/></g><path d="M180 0v-1490h901v168H370v510h643v168H370V0H180" id="G"/><path d="M613 24c-304 0-509-231-509-576 0-350 205-580 509-580 305 0 511 230 511 580 0 345-206 576-511 576zm0-161c226 0 329-195 329-415 0-222-103-419-329-419-223 0-326 196-326 419 0 220 103 415 326 415" id="H"/><path d="M338-670V0H158v-1118h173l1 207c72-158 192-221 342-221 226 0 378 139 378 422V0H872v-695c0-172-96-275-252-275-161 0-282 109-282 300" id="I"/><path d="M577 24c-279 0-473-224-473-580 0-354 195-576 474-576 218 0 287 134 324 193h14v-551h180V0H922v-173h-20C865-111 790 24 577 24zm27-161c203 0 314-172 314-421 0-247-108-413-314-413-212 0-317 181-317 413 0 235 108 421 317 421" id="J"/><g id="c"><use transform="matrix(0.010850694444444444,0,0,0.010850694444444444,0,0)" xlink:href="#G"/><use transform="matrix(0.010850694444444444,0,0,0.010850694444444444,12.467447916666666,0)" xlink:href="#B"/><use transform="matrix(0.010850694444444444,0,0,0.010850694444444444,20.46440972222222,0)" xlink:href="#H"/><use transform="matrix(0.010850694444444444,0,0,0.010850694444444444,33.7890625,0)" xlink:href="#I"/><use transform="matrix(0.010850694444444444,0,0,0.010850694444444444,46.91840277777778,0)" xlink:href="#F"/><use transform="matrix(0.010850694444444444,0,0,0.010850694444444444,53.97135416666667,0)" xlink:href="#A"/><use transform="matrix(0.010850694444444444,0,0,0.010850694444444444,66.92708333333334,0)" xlink:href="#I"/><use transform="matrix(0.010850694444444444,0,0,0.010850694444444444,80.05642361111111,0)" xlink:href="#J"/></g><path d="M180 0v-1490h510c348 0 508 209 508 474 0 266-160 477-507 477H370V0H180zm190-706h312c236 0 327-133 327-310 0-176-91-307-329-307H370v617" id="K"/><path d="M140 405l46-156c120 36 205 19 263-150l32-93L54-1118h197c107 313 237 620 324 950 87-331 219-637 326-950h196L606 167c-68 178-176 259-334 259-64 0-113-12-132-21" id="L"/><path d="M338-670V0H158v-1490h180v566c73-149 190-208 336-208 226 0 379 139 379 422V0H872v-695c0-172-96-275-252-275-161 0-282 109-282 300" id="M"/><g id="d"><use transform="matrix(0.010850694444444444,0,0,0.010850694444444444,0,0)" xlink:href="#K"/><use transform="matrix(0.010850694444444444,0,0,0.010850694444444444,14.192708333333332,0)" xlink:href="#L"/><use transform="matrix(0.010850694444444444,0,0,0.010850694444444444,27.00737847222222,0)" xlink:href="#F"/><use transform="matrix(0.010850694444444444,0,0,0.010850694444444444,34.27734375,0)" xlink:href="#M"/><use transform="matrix(0.010850694444444444,0,0,0.010850694444444444,47.41753472222222,0)" xlink:href="#H"/><use transform="matrix(0.010850694444444444,0,0,0.010850694444444444,60.7421875,0)" xlink:href="#I"/></g><path d="M458 0L52-1490h194c108 439 233 855 324 1313 92-459 221-873 331-1313h216c110 438 234 854 330 1307 92-455 216-869 323-1307h196L1558 0h-221l-256-944c-26-95-50-200-73-331-22 122-44 223-73 331L680 0H458" id="N"/><path d="M677 24c-213 0-288-135-325-197h-20V0H158v-1490h180v551h14c37-59 106-193 324-193 279 0 474 222 474 576 0 356-194 580-473 580zm-27-161c209 0 317-186 317-421 0-232-105-413-317-413-206 0-314 166-314 413 0 249 111 421 314 421" id="O"/><path d="M158 0v-1490h180v865h22l478-493h223L593-638 1096 0H865L456-523 338-412V0H158" id="P"/><g id="e"><use transform="matrix(0.010850694444444444,0,0,0.010850694444444444,0,0)" xlink:href="#N"/><use transform="matrix(0.010850694444444444,0,0,0.010850694444444444,20.768229166666668,0)" xlink:href="#A"/><use transform="matrix(0.010850694444444444,0,0,0.010850694444444444,33.723958333333336,0)" xlink:href="#O"/><use transform="matrix(0.010850694444444444,0,0,0.010850694444444444,47.33072916666667,0)" xlink:href="#z"/><use transform="matrix(0.010850694444444444,0,0,0.010850694444444444,59.06032986111112,0)" xlink:href="#H"/><use transform="matrix(0.010850694444444444,0,0,0.010850694444444444,72.38498263888889,0)" xlink:href="#E"/><use transform="matrix(0.010850694444444444,0,0,0.010850694444444444,85.08029513888889,0)" xlink:href="#P"/><use transform="matrix(0.010850694444444444,0,0,0.010850694444444444,96.77734375,0)" xlink:href="#A"/><use transform="matrix(0.010850694444444444,0,0,0.010850694444444444,109.73307291666666,0)" xlink:href="#F"/></g><path d="M180 0v-1490h908v168H370v486h669v168H370v500h727V0H180" id="Q"/><path d="M783 20c-382 0-661-292-661-764 0-473 279-766 661-766 302 0 548 182 601 489h-190c-42-204-217-313-411-313-268 0-476 208-476 590 0 381 209 588 476 588 195 0 369-110 411-313h190c-52 303-296 489-601 489" id="R"/><path d="M154 0v-137l495-537c165-179 249-281 249-418 0-156-121-253-280-253-170 0-278 110-278 278H158c0-264 200-443 465-443 266 0 455 183 455 416 0 161-73 288-336 568L416-179v12h687V0H154" id="S"/><g id="f"><use transform="matrix(0.010850694444444444,0,0,0.010850694444444444,0,0)" xlink:href="#Q"/><use transform="matrix(0.010850694444444444,0,0,0.010850694444444444,13.35720486111111,0)" xlink:href="#R"/><use transform="matrix(0.010850694444444444,0,0,0.010850694444444444,29.58984375,0)" xlink:href="#S"/></g><path d="M52 0l541-1490h220L1361 0h-200l-149-416H398L254 0H52zm404-582h497c-103-290-145-390-251-756-108 377-145 460-246 756" id="T"/><path d="M611 442c-248 0-391-105-460-228l146-94c47 65 117 165 314 165 178 0 307-82 307-266v-224h-17C863-141 792-18 576-18c-268 0-472-195-472-546 0-346 197-568 476-568 216 0 288 133 326 193h17v-179h175V29c0 289-215 413-487 413zm-5-620c203 0 314-146 314-390 0-237-108-403-314-403-213 0-319 180-319 403 0 230 109 390 319 390" id="U"/><g id="g"><use transform="matrix(0.010850694444444444,0,0,0.010850694444444444,0,0)" xlink:href="#T"/><use transform="matrix(0.010850694444444444,0,0,0.010850694444444444,15.33203125,0)" xlink:href="#U"/><use transform="matrix(0.010850694444444444,0,0,0.010850694444444444,28.96050347222222,0)" xlink:href="#A"/><use transform="matrix(0.010850694444444444,0,0,0.010850694444444444,41.916232638888886,0)" xlink:href="#I"/><use transform="matrix(0.010850694444444444,0,0,0.010850694444444444,55.045572916666664,0)" xlink:href="#F"/></g><path d="M657 26c-323 0-524-166-541-416h195c15 169 171 246 346 246 202 0 356-106 356-265 5-203-294-238-475-293-239-73-380-191-380-389 0-252 224-419 512-419 294 0 499 171 508 396H992c-17-145-151-228-328-228-193 0-321 102-321 242 0 156 175 211 284 241l149 41c160 44 422 134 422 412 0 244-197 432-541 432" id="V"/><path d="M180 0v-1490h270l367 940c28 72 75 218 110 339 35-117 81-264 110-339l362-940h271V0h-187c2-448-5-837 7-1287-157 497-311 829-483 1287H842C666-458 514-784 354-1284c12 438 5 843 7 1284H180" id="W"/><g id="h"><use transform="matrix(0.010850694444444444,0,0,0.010850694444444444,0,0)" xlink:href="#V"/><use transform="matrix(0.010850694444444444,0,0,0.010850694444444444,14.2578125,0)" xlink:href="#V"/><use transform="matrix(0.010850694444444444,0,0,0.010850694444444444,28.515625,0)" xlink:href="#W"/></g><path d="M180 0v-1490h528c311 0 458 177 458 395 0 191-114 278-244 313v14c139 9 302 137 302 371 0 225-148 397-499 397H180zm190-168h350c232 0 321-102 321-231 0-149-120-277-311-277H370v508zm0-668h328c160 0 286-101 286-255 0-129-87-231-280-231H370v486" id="X"/><path d="M537 14c-226 0-379-139-379-422v-710h180v695c0 172 97 275 253 275 160 0 281-109 281-300v-670h181V0H879v-209C806-46 684 14 537 14" id="Y"/><path d="M158 418v-1536h174v179h20c37-59 106-193 324-193 279 0 474 222 474 576 0 356-194 580-473 580-213 0-288-135-325-197h-14v591H158zm492-555c209 0 317-186 317-421 0-232-105-413-317-413-206 0-314 166-314 413 0 249 111 421 314 421" id="Z"/><g id="i"><use transform="matrix(0.010850694444444444,0,0,0.010850694444444444,0,0)" xlink:href="#X"/><use transform="matrix(0.010850694444444444,0,0,0.010850694444444444,14.539930555555555,0)" xlink:href="#D"/><use transform="matrix(0.010850694444444444,0,0,0.010850694444444444,27.018229166666664,0)" xlink:href="#E"/><use transform="matrix(0.010850694444444444,0,0,0.010850694444444444,39.713541666666664,0)" xlink:href="#P"/><use transform="matrix(0.010850694444444444,0,0,0.010850694444444444,51.90972222222222,0)" xlink:href="#Y"/><use transform="matrix(0.010850694444444444,0,0,0.010850694444444444,65.04991319444444,0)" xlink:href="#Z"/></g><path d="M481 0L54-1118h197c107 314 236 620 325 951 87-331 217-637 324-951h197L670 0H481" id="aa"/><path d="M158 0v-1118h180V0H158zm91-1301c-68 0-125-53-125-119s57-119 125-119c69 0 126 53 126 119s-57 119-126 119" id="ab"/><g id="j"><use transform="matrix(0.010850694444444444,0,0,0.010850694444444444,0,0)" xlink:href="#V"/><use transform="matrix(0.010850694444444444,0,0,0.010850694444444444,14.2578125,0)" xlink:href="#Y"/><use transform="matrix(0.010850694444444444,0,0,0.010850694444444444,27.39800347222222,0)" xlink:href="#Z"/><use transform="matrix(0.010850694444444444,0,0,0.010850694444444444,41.00477430555556,0)" xlink:href="#A"/><use transform="matrix(0.010850694444444444,0,0,0.010850694444444444,53.96050347222222,0)" xlink:href="#B"/><use transform="matrix(0.010850694444444444,0,0,0.010850694444444444,62.67361111111111,0)" xlink:href="#aa"/><use transform="matrix(0.010850694444444444,0,0,0.010850694444444444,75.16276041666666,0)" xlink:href="#ab"/><use transform="matrix(0.010850694444444444,0,0,0.010850694444444444,80.5447048611111,0)" xlink:href="#z"/><use transform="matrix(0.010850694444444444,0,0,0.010850694444444444,92.27430555555556,0)" xlink:href="#H"/><use transform="matrix(0.010850694444444444,0,0,0.010850694444444444,105.59895833333331,0)" xlink:href="#B"/></g><path d="M338-1490V0H158v-1490h180" id="ac"/><g id="k"><use transform="matrix(0.010850694444444444,0,0,0.010850694444444444,0,0)" xlink:href="#R"/><use transform="matrix(0.010850694444444444,0,0,0.010850694444444444,16.23263888888889,0)" xlink:href="#ac"/><use transform="matrix(0.010850694444444444,0,0,0.010850694444444444,21.614583333333336,0)" xlink:href="#D"/><use transform="matrix(0.010850694444444444,0,0,0.010850694444444444,34.09288194444444,0)" xlink:href="#Y"/><use transform="matrix(0.010850694444444444,0,0,0.010850694444444444,47.233072916666664,0)" xlink:href="#J"/><use transform="matrix(0.010850694444444444,0,0,0.010850694444444444,60.83984375,0)" xlink:href="#A"/></g><path d="M635 20c-292 0-500-160-510-396h192c11 142 145 229 315 229 187 0 323-105 323-260 0-161-125-274-346-274H488v-165h121c174 0 294-100 294-254 0-148-104-245-266-245-152 0-291 85-297 230H157c8-234 222-395 484-395 278 0 448 188 448 400 0 168-95 291-247 336v12c190 31 301 169 301 357 0 244-216 425-508 425" id="ad"/><use transform="matrix(0.010850694444444444,0,0,0.010850694444444444,0,0)" xlink:href="#ad" id="l"/><path d="M180 0v-1490h190v644h782v-644h190V0h-190v-678H370V0H180" id="ae"/><g id="m"><use transform="matrix(0.010850694444444444,0,0,0.010850694444444444,0,0)" xlink:href="#ae"/><use transform="matrix(0.010850694444444444,0,0,0.010850694444444444,16.514756944444443,0)" xlink:href="#D"/><use transform="matrix(0.010850694444444444,0,0,0.010850694444444444,28.993055555555554,0)" xlink:href="#ab"/><use transform="matrix(0.010850694444444444,0,0,0.010850694444444444,34.375,0)" xlink:href="#P"/><use transform="matrix(0.010850694444444444,0,0,0.010850694444444444,46.57118055555556,0)" xlink:href="#Y"/></g><path d="M180 0v-1490h224l606 953c40 63 108 177 176 312-27-437-7-821-13-1265h190V0h-226C860-448 622-778 356-1262c27 476 11 792 15 1262H180" id="af"/><g id="n"><use transform="matrix(0.010850694444444444,0,0,0.010850694444444444,0,0)" xlink:href="#af"/><use transform="matrix(0.010850694444444444,0,0,0.010850694444444444,16.74262152777778,0)" xlink:href="#H"/><use transform="matrix(0.010850694444444444,0,0,0.010850694444444444,29.633246527777775,0)" xlink:href="#aa"/><use transform="matrix(0.010850694444444444,0,0,0.010850694444444444,42.01388888888889,0)" xlink:href="#D"/></g><g id="o"><use transform="matrix(0.010850694444444444,0,0,0.010850694444444444,0,0)" xlink:href="#V"/><use transform="matrix(0.010850694444444444,0,0,0.010850694444444444,14.2578125,0)" xlink:href="#H"/><use transform="matrix(0.010850694444444444,0,0,0.010850694444444444,27.58246527777778,0)" xlink:href="#I"/><use transform="matrix(0.010850694444444444,0,0,0.010850694444444444,40.71180555555556,0)" xlink:href="#ab"/><use transform="matrix(0.010850694444444444,0,0,0.010850694444444444,46.09375,0)" xlink:href="#E"/></g><g id="p"><use transform="matrix(0.010850694444444444,0,0,0.010850694444444444,0,0)" xlink:href="#V"/><use transform="matrix(0.010850694444444444,0,0,0.010850694444444444,14.2578125,0)" xlink:href="#S"/><use transform="matrix(0.010850694444444444,0,0,0.010850694444444444,27.81032986111111,0)" xlink:href="#V"/></g><path d="M798-719v166H144v-166h654" id="ag"/><g id="q"><use transform="matrix(0.010850694444444444,0,0,0.010850694444444444,0,0)" xlink:href="#W"/><use transform="matrix(0.010850694444444444,0,0,0.010850694444444444,20.07378472222222,0)" xlink:href="#Y"/><use transform="matrix(0.010850694444444444,0,0,0.010850694444444444,33.21397569444444,0)" xlink:href="#ac"/><use transform="matrix(0.010850694444444444,0,0,0.010850694444444444,38.92144097222222,0)" xlink:href="#F"/><use transform="matrix(0.010850694444444444,0,0,0.010850694444444444,46.19140625,0)" xlink:href="#ab"/><use transform="matrix(0.010850694444444444,0,0,0.010850694444444444,51.57335069444444,0)" xlink:href="#ag"/><use transform="matrix(0.010850694444444444,0,0,0.010850694444444444,61.04600694444444,0)" xlink:href="#T"/><use transform="matrix(0.010850694444444444,0,0,0.010850694444444444,76.37803819444444,0)" xlink:href="#U"/><use transform="matrix(0.010850694444444444,0,0,0.010850694444444444,90.00651041666666,0)" xlink:href="#A"/><use transform="matrix(0.010850694444444444,0,0,0.010850694444444444,102.96223958333333,0)" xlink:href="#I"/><use transform="matrix(0.010850694444444444,0,0,0.010850694444444444,116.0915798611111,0)" xlink:href="#F"/></g><g id="r"><use transform="matrix(0.010850694444444444,0,0,0.010850694444444444,0,0)" xlink:href="#R"/><use transform="matrix(0.010850694444444444,0,0,0.010850694444444444,16.23263888888889,0)" xlink:href="#H"/><use transform="matrix(0.010850694444444444,0,0,0.010850694444444444,29.557291666666664,0)" xlink:href="#ac"/><use transform="matrix(0.010850694444444444,0,0,0.010850694444444444,34.93923611111111,0)" xlink:href="#ac"/><use transform="matrix(0.010850694444444444,0,0,0.010850694444444444,40.32118055555555,0)" xlink:href="#D"/><use transform="matrix(0.010850694444444444,0,0,0.010850694444444444,52.79947916666666,0)" xlink:href="#O"/><use transform="matrix(0.010850694444444444,0,0,0.010850694444444444,66.40624999999999,0)" xlink:href="#H"/><use transform="matrix(0.010850694444444444,0,0,0.010850694444444444,79.73090277777776,0)" xlink:href="#B"/><use transform="matrix(0.010850694444444444,0,0,0.010850694444444444,88.09678819444443,0)" xlink:href="#D"/><use transform="matrix(0.010850694444444444,0,0,0.010850694444444444,100.57508680555556,0)" xlink:href="#F"/><use transform="matrix(0.010850694444444444,0,0,0.010850694444444444,107.84505208333331,0)" xlink:href="#ab"/><use transform="matrix(0.010850694444444444,0,0,0.010850694444444444,113.22699652777776,0)" xlink:href="#H"/><use transform="matrix(0.010850694444444444,0,0,0.010850694444444444,126.55164930555553,0)" xlink:href="#I"/></g><g id="s"><use transform="matrix(0.010850694444444444,0,0,0.010850694444444444,0,0)" xlink:href="#y"/><use transform="matrix(0.010850694444444444,0,0,0.010850694444444444,16.536458333333332,0)" xlink:href="#z"/><use transform="matrix(0.010850694444444444,0,0,0.010850694444444444,28.266059027777775,0)" xlink:href="#A"/><use transform="matrix(0.010850694444444444,0,0,0.010850694444444444,41.22178819444444,0)" xlink:href="#B"/></g><g id="t"><use transform="matrix(0.010850694444444444,0,0,0.010850694444444444,0,0)" xlink:href="#T"/><use transform="matrix(0.010850694444444444,0,0,0.010850694444444444,15.33203125,0)" xlink:href="#Y"/><use transform="matrix(0.010850694444444444,0,0,0.010850694444444444,28.47222222222222,0)" xlink:href="#J"/><use transform="matrix(0.010850694444444444,0,0,0.010850694444444444,42.07899305555556,0)" xlink:href="#ab"/><use transform="matrix(0.010850694444444444,0,0,0.010850694444444444,47.4609375,0)" xlink:href="#H"/></g><g id="u"><use transform="matrix(0.010850694444444444,0,0,0.010850694444444444,0,0)" xlink:href="#T"/><use transform="matrix(0.010850694444444444,0,0,0.010850694444444444,15.33203125,0)" xlink:href="#z"/><use transform="matrix(0.010850694444444444,0,0,0.010850694444444444,27.061631944444443,0)" xlink:href="#z"/><use transform="matrix(0.010850694444444444,0,0,0.010850694444444444,38.791232638888886,0)" xlink:href="#ab"/><use transform="matrix(0.010850694444444444,0,0,0.010850694444444444,44.17317708333333,0)" xlink:href="#z"/><use transform="matrix(0.010850694444444444,0,0,0.010850694444444444,55.90277777777778,0)" xlink:href="#F"/><use transform="matrix(0.010850694444444444,0,0,0.010850694444444444,63.28125,0)" xlink:href="#D"/><use transform="matrix(0.010850694444444444,0,0,0.010850694444444444,75.7595486111111,0)" xlink:href="#I"/><use transform="matrix(0.010850694444444444,0,0,0.010850694444444444,88.88888888888887,0)" xlink:href="#F"/></g><g id="v"><use transform="matrix(0.010850694444444444,0,0,0.010850694444444444,0,0)" xlink:href="#T"/><use transform="matrix(0.010850694444444444,0,0,0.010850694444444444,15.33203125,0)" xlink:href="#Y"/><use transform="matrix(0.010850694444444444,0,0,0.010850694444444444,28.47222222222222,0)" xlink:href="#J"/><use transform="matrix(0.010850694444444444,0,0,0.010850694444444444,42.07899305555556,0)" xlink:href="#ab"/><use transform="matrix(0.010850694444444444,0,0,0.010850694444444444,47.4609375,0)" xlink:href="#H"/></g><path d="M580 20c-295 0-476-179-476-409 0-189 123-290 294-416-104-125-173-226-173-362 0-197 144-337 365-337 224 0 362 144 362 321 0 185-174 312-306 405l319 387c38-75 61-165 61-267h173c0 208-62 332-120 406L1287 0h-217L967-124C868-27 716 20 580 20zm279-273L507-675l-51 38c-123 91-167 162-167 254 0 147 113 246 278 246 107 0 210-41 292-116zM538-908l97-72c54-40 136-101 136-206 0-95-68-163-176-163-113 0-189 74-189 181 0 90 53 164 132 260" id="ah"/><use transform="matrix(0.010850694444444444,0,0,0.010850694444444444,0,0)" xlink:href="#ah" id="w"/><path d="M98-1322v-168h1126v168H757V0H567v-1322H98" id="ai"/><path d="M65 0l393-574-370-544h210c88 136 192 297 267 435 67-142 176-302 264-435h206L661-564 1053 0H844c-94-144-206-310-287-458C484-308 366-142 273 0H65" id="aj"/><g id="x"><use transform="matrix(0.010850694444444444,0,0,0.010850694444444444,0,0)" xlink:href="#ai"/><use transform="matrix(0.010850694444444444,0,0,0.010850694444444444,12.608506944444445,0)" xlink:href="#A"/><use transform="matrix(0.010850694444444444,0,0,0.010850694444444444,25.065104166666664,0)" xlink:href="#aj"/><use transform="matrix(0.010850694444444444,0,0,0.010850694444444444,37.63020833333333,0)" xlink:href="#F"/></g></defs></g></svg>